<?xml version="1.0" standalone="no"?><!DOCTYPE svg PUBLIC "-//W3C//DTD SVG 1.1//EN" "http://www.w3.org/Graphics/SVG/1.1/DTD/svg11.dtd"><svg t="1681721506921" class="icon" viewBox="0 0 1024 1024" version="1.1" xmlns="http://www.w3.org/2000/svg" p-id="5881" xmlns:xlink="http://www.w3.org/1999/xlink" width="200" height="200"><path d="M636.743846 614.74076c22.595579-25.109837 40.44405-53.641604 52.953944-84.37859 14.033593-34.417812 21.40343-71.55659 21.403429-109.622481 0.002047-37.298413-6.972794-73.561242-20.280865-107.205436-13.347979-33.672846-33.07933-64.847807-58.466483-91.78322l-6.133685-6.145964h-0.040932c-27.341664-27.319151-59.300476-48.575225-94.011976-62.943439-34.747316-14.393796-72.413095-21.975457-111.067386-21.975457s-76.317 7.582684-111.068409 21.975457c-34.70843 14.366167-66.676452 35.624287-94.00993 62.946508-27.338594 27.34678-48.581365 59.321965-62.971067 94.020163-14.38254 34.749362-21.958061 72.403885-21.958061 111.060223 0.005117 38.655314 7.575521 76.337467 21.958061 111.086829 12.479194 30.120958 30.130167 58.139025 52.446384 82.915265l7.444538 40.730576a313.421689 313.421689 0 0 1-13.657017-12.869073c-29.492649-29.482416-52.449454-64.075213-68.071216-101.808531a313.935388 313.935388 0 0 1-23.832754-120.055066c0.007163-41.664852 8.250901-82.377008 23.832754-120.029484a313.17712 313.17712 0 0 1 68.071216-101.783971 313.646816 313.646816 0 0 1 101.775784-68.059959c37.670896-15.579806 78.352352-23.800008 120.038694-23.800008 41.686341-0.004093 82.373938 8.225319 120.032554 23.800008 37.74355 15.625854 72.331231 38.605172 101.783971 68.059959v0.051165l6.29946 6.246249 0.276292 0.277315c27.422505 29.123236 48.777839 62.848271 63.245313 99.346461a315.067162 315.067162 0 0 1 22.077787 115.94343c0 41.120454-8.011448 81.245233-23.195235 118.514994-15.142855 37.190966-37.539913 71.452212-66.352065 100.906999l-0.438997 0.406252-1.195219 1.109262v-0.026606l-0.835016 0.745988-0.71836 0.797154h0.042979l-1.117448 1.17987-0.442068 0.491186a321.21722 321.21722 0 0 1-8.453515 7.974609l4.627381-38.09966h0.007163zM702.095119 786.302818l208.905497 208.784746c56.869105 54.309821 136.254995-32.873646 83.610089-85.487852L786.70293 701.689891c-4.702083-4.702083-19.126578 1.442859-31.239429 8.40849l-23.557485-23.549298c-29.147795-14.969916-61.362434-1.099029-44.951705 44.959891l23.549299 23.542135c-6.973818 12.105688-13.107503 26.578279-8.408491 31.251709z m69.308391-33.051701c-11.481473-11.436447 9.040892-31.947556 20.479386-20.456873l129.245361 129.231035c11.476356 11.438494-9.051125 31.92402-20.488596 20.486549L771.40351 753.251117z" fill="#e6e6e6" p-id="5882"></path><path d="M731.906016 686.550106c65.436207-76.308814 98.159428-171.069849 98.154311-265.810417 0.002047-104.583731-39.97026-209.218627-119.873942-289.128449l0.11768-0.080841C630.440293 51.671743 525.79107 11.735252 421.099892 11.735252c-104.652292 0-209.340401 39.941608-289.168357 119.799241C52.067762 211.336867 12.135364 316.052604 12.135364 420.6875c0 104.709597 39.931375 209.34654 119.795147 289.205197 79.82284 79.83205 184.518112 119.773658 289.20929 119.773658 94.726242 0 189.49444-32.719127 265.81451-98.157381 18.092017-12.107735 30.052396-29.770988 44.951705-44.958868zM658.977176 662.313147v0.005117c-65.958092 64.976744-151.914618 97.436975-237.877284 97.439021-86.755726 0-173.512476-33.106959-239.711044-99.316785-66.234385-66.184243-99.310645-152.980901-99.315762-239.751976 0-86.746516 33.0824-173.548291 99.315762-239.702858 66.194476-66.235408 152.958388-99.316785 239.711044-99.313715 86.755726 0 173.556478 33.128449 239.750953 99.309622l0.077772-0.12382c66.115681 66.15866 99.239013 152.954295 99.192964 239.881936 0.042979 85.922757-32.438742 171.871096-97.398089 237.826118a27.609769 27.609769 0 0 0-1.950418 1.799992 29.610329 29.610329 0 0 0-1.795898 1.947348z" fill="#e6e6e6" p-id="5883"></path><path d="M515.831251 307.231722c-14.110341-15.134668-29.654331-43.71453-40.932166-72.014006-25.82001 53.125858-97.677451 67.083727-149.04732 57.317312a113.929568 113.929568 0 0 0-0.158612 6.374162c0 30.713451 13.067594 67.494072 29.21124 93.583211 40.095103 64.821202 91.936715 64.821202 132.026702 0 14.708974-23.751913 26.860711-56.392245 28.894016-85.256585l0.00614-0.004094zM205.49687 614.690618v33.90616a313.710261 313.710261 0 0 0 95.563305 61.988696c37.6228 15.577759 78.312444 23.803078 120.038694 23.803078 41.209482 0 81.379286-7.996099 118.519087-23.131791 37.221665-15.19095 71.495191-37.579822 100.944861-66.389926l-3.825111-30.125051c-4.863765-27.424551-11.397562-54.770308-19.886893-82.170301-8.446352-27.115513-96.000256-47.833329-125.015021-56.031019-17.893496 36.650662-35.145381 44.256881-70.736923 70.887349-35.589495-26.628421-52.840357-34.236687-70.697014-70.887349-29.053652 8.200759-116.605508 28.889923-125.019115 56.031019a669.491626 669.491626 0 0 0-19.88587 82.119135z m330.457657-289.131518v0.00307c-4.740968 25.419898-15.182764 53.357125-30.051373 77.364864-49.096087 78.985778-120.872687 78.982708-169.96775 0-14.904425-24.005692-25.346221-51.945989-30.05035-77.367934v0.00307c-42.640061-85.306727 33.398601-165.810065 115.01427-164.984259 92.257009 0.92609 146.259839 87.747308 115.053156 164.981189h0.002047z" fill="#e6e6e6" p-id="5884"></path></svg>