<?xml version="1.0" standalone="no"?><!DOCTYPE svg PUBLIC "-//W3C//DTD SVG 1.1//EN" "http://www.w3.org/Graphics/SVG/1.1/DTD/svg11.dtd"><svg t="1681707510393" class="icon" viewBox="0 0 1024 1024" version="1.1" xmlns="http://www.w3.org/2000/svg" p-id="7657" xmlns:xlink="http://www.w3.org/1999/xlink" width="200" height="200"><path d="M529.1 377.7m-97 0a97 97 0 1 0 194 0 97 97 0 1 0-194 0Z" fill="#E4E6EB" p-id="7658"></path><path d="M585.6 460v174.7c0 6.6-5.4 12-12 12H449.1c-6.6 0-12-5.4-12-12V460c0-6.6 5.4-12 12-12h124.5c6.6 0 12 5.4 12 12z" fill="#E4E6EB" p-id="7659"></path><path d="M388.7 627.5H634c6.6 0 12 5.4 12 12v56.9c0 6.6-5.4 12-12 12H388.7c-6.6 0-12-5.4-12-12v-56.9c0-6.6 5.4-12 12-12z" fill="#E4E6EB" p-id="7660"></path><path d="M794.1 881h-483c-6.6 0-12-5.4-12-12V686c0-6.6 5.4-12 12-12h483c6.6 0 12 5.4 12 12v183c0 6.6-5.4 12-12 12z" fill="#E4E6EB" p-id="7661"></path><path d="M792.6 812.6H239c-34.4 0-62.4-28-62.4-62.4v-40.6c0-34.4 28-62.4 62.4-62.4h60.2c5.5-0.4 62.5-5.8 96.6-46.2 25.3-30 38.1-55.7 38.1-76.5 0-2.5 0.3-4.8 0.6-7.5 1.3-12.1 4.1-37.4-24.5-65.9-9.8-9.7-9.8-25.6-0.1-35.4 9.7-9.8 25.6-9.8 35.4-0.1 45.6 45.5 40.5 91.6 38.9 106.8-0.1 0.8-0.2 1.9-0.2 2.4 0 12.7-0.5 49.9-49.9 108.4-50 59.2-129.5 63.8-132.8 63.9h-62.2c-6.7 0-12.4 5.7-12.4 12.4v40.6c0 6.7 5.7 12.4 12.4 12.4h553.6c6.7 0 12.4-5.7 12.4-12.4v-40.6c0-6.7-5.7-12.4-12.4-12.4h-68.4c-7.3 0.1-80.8-1.1-140.5-72.7-39.8-47.8-41.3-87.4-40.6-99.9-0.2-2.5-0.3-5.6-0.3-9.8 0-9.3 0.8-18.8 2.4-28 5.1-30.3 18.2-56.1 37.9-74.6 10.1-9.4 25.9-8.9 35.3 1.1s8.9 25.9-1.1 35.3c-28.5 26.7-24.3 72.7-24.2 73.2-0.3-2.6-0.9-5.1-2-7.4 1.8 4.1 2.5 8.6 1.9 13.1-0.2 1.9-1.7 28 29.1 64.9 44.8 53.8 97.6 54.8 101.4 54.8h69.1c34.4 0 62.4 28 62.4 62.4v40.6c0 34.5-28 62.5-62.5 62.5zM593.1 527.5v0z m-24.6-28.2z m-0.1 0z m0 0z m-0.1 0s0.1 0 0 0c0.1 0 0 0 0 0z" fill="#e6e6e6" p-id="7662" data-spm-anchor-id="a313x.7781069.0.i26" class="selected"></path><path d="M602.7 453.2c-7.9 0-15.6-3.7-20.5-10.7-7.9-11.3-5.2-26.9 6.1-34.8C623.8 382.9 645 342.2 645 299c0-73.2-59.5-132.7-132.7-132.7S379.7 225.8 379.7 299c0 43.2 21.2 83.9 56.6 108.7 11.3 7.9 14.1 23.5 6.1 34.8-7.9 11.3-23.5 14.1-34.8 6.1-48.8-34.2-78-90.2-78-149.7 0-100.7 81.9-182.7 182.7-182.7C613.1 116.3 695 198.3 695 299c0 59.5-29.1 115.5-78 149.7-4.3 3-9.3 4.5-14.3 4.5zM768 906H257.5c-20.4 0-37-16.6-37-37v-69.4c0-20.4 16.6-37 37-37H768c20.4 0 37 16.6 37 37V869c0 20.4-16.6 37-37 37z m-497.5-50H755v-43.4H270.5V856z" fill="#e6e6e6" p-id="7663" data-spm-anchor-id="a313x.7781069.0.i27" class="selected"></path></svg>