<?xml version="1.0" standalone="no"?><!DOCTYPE svg PUBLIC "-//W3C//DTD SVG 1.1//EN" "http://www.w3.org/Graphics/SVG/1.1/DTD/svg11.dtd"><svg t="1681706533840" class="icon" viewBox="0 0 1024 1024" version="1.1" xmlns="http://www.w3.org/2000/svg" p-id="5589" xmlns:xlink="http://www.w3.org/1999/xlink" width="200" height="200"><path d="M275.7 106.8C296 88.5 325.3 81 352 86.9c15.6 3.3 30.2 11.1 41.8 22.2 47.8 43.7 95.7 87.4 143.6 131.2 16.4 15.4 26.5 37.3 26.9 59.8 0.6 7.5 0.3 14.9 0.4 22.4v570h30.6V391.6c0.3-22.3 6.5-44.6 18-63.7 14.6-24.5 37.7-43.9 64.5-53.8 14.6-5.6 30.2-8.1 45.8-8.2h51c12.1 0 24.2-0.4 36.2 1.5 25.7 3.7 50.1 15.7 68.9 33.7 21 19.9 34.8 47.1 38.3 75.8 1.4 10.3 0.9 20.7 1 31v484.5c7.1 0.4 14.6-1.2 21.3 1.8 6.8 2.9 12 9.2 13.4 16.5 1.7 7.6-0.9 15.9-6.5 21.4-4.5 4.6-10.8 6.3-17 7H124.6c-11.6-1.1-23.3 0.2-34.9-0.7-10.4-1.2-18.9-10.3-19.9-20.7v-4c0.7-8.6 6.4-16.6 14.5-19.7 5.7-2.4 11.9-1.3 17.9-1.6V308.6c0.1-3.5 0.4-6.9 0.5-10.3 0.8-17.5 7.3-34.6 18.1-48.3 4.1-5.3 9.1-9.9 14.1-14.5 46.9-42.9 93.8-85.8 140.8-128.7m6.9 174.7c-17.8 0.6-35.2 8.6-47.2 21.8-11 11.9-17.4 28-17.5 44.2v99.4c0.2 15.6 6.1 31 16.4 42.7 10.7 12.5 26.3 20.7 42.6 22.6 5.5 0.7 11 0.5 16.5 0.5h89.9c17.1-0.3 34-7.5 46.1-19.7 10.7-10.7 17.6-25.1 19.2-40.1 0.7-6.6 0.4-13.3 0.5-19.9v-78.6c0.1-7.5-0.2-15.2-2.2-22.5-3.7-14.7-12.6-28-24.8-37-11.6-8.8-26.1-13.5-40.6-13.4-32.9 0-65.9-0.1-98.9 0M710 436.7c-4.2 0.2-8.3 1.4-11.8 3.8-7.7 4.9-11.8 14.6-10.1 23.5 1.4 9.2 9.1 17 18.2 18.8 3.7 0.7 7.6 0.5 11.4 0.5h84.6c6 0.1 12.1-1.8 16.6-5.8 8.6-7.3 10.4-21.2 3.9-30.5-4.2-6.5-11.9-10.3-19.6-10.3-31.1 0-62.2-0.1-93.2 0M281.6 561.1c-18.6 0.8-36.5 9.8-48.3 24.2-9.6 11.5-15.1 26.2-15.4 41.1v100.3c0.3 16.7 7.2 33.4 19 45.2 10.3 10.9 24.5 17.9 39.4 19.8 6.5 0.8 13.1 0.6 19.7 0.6h86.4c14.1-0.2 28.2-4.8 39.6-13.3 13.3-9.8 22.7-24.7 25.8-41 1.6-8 1.3-16.2 1.3-24.4V635c0.1-6.7 0-13.4-1.3-20-2.6-13.2-9.3-25.6-18.9-35-12.2-12.1-29.3-19-46.5-19.1-33.6 0.2-67.2 0-100.8 0.2m423.5 15.1c-4.3 1.1-8.2 3.4-11.2 6.7-6.2 6.5-7.9 16.7-4.4 24.9 3.4 8.3 12.1 14.2 21.1 14.1h93.3c6.9 0 13.5-3.4 17.8-8.8 6.1-7.6 6.6-19.1 1.2-27.2-4.1-6.3-11.3-10.4-18.9-10.4h-89.1c-3.3 0-6.6-0.2-9.8 0.7m4 130.8c-11.7 0.6-21.8 11.3-21.4 23.1-0.4 12 10.1 23 22.1 23.2h94.1c8.2 0 16-4.8 19.9-12 5.4-9.4 3-22.5-5.6-29.2-5.3-4.7-12.7-5.8-19.5-5.3-29.9 0.2-59.7 0.1-89.6 0.2z" p-id="5590" data-spm-anchor-id="a313x.7781069.0.i9" class="selected" fill="#e6e6e6"></path><path d="M280.1 328.3c2.1-0.6 4.4-0.7 6.6-0.7 32 0.1 64 0 95.9 0 11 0.2 20.4 10 20.3 20.9 0.1 31.9 0 63.8 0 95.7 0.1 6.4-2.5 13-7.5 17.1-3.8 3.3-8.8 5-13.8 5h-96.8c-10.9 0-20.6-9.5-20.7-20.4v-93.4c0-3.2-0.2-6.5 0.8-9.6 1.9-7 8-12.8 15.2-14.6zM279.3 608.1c3.5-1.1 7.2-0.8 10.8-0.8h91.5c7.9-0.1 15.6 4.6 19 11.6 1.7 3.4 2.3 7.2 2.3 11v93.4c0.1 4.7-1 9.5-3.7 13.4-3.8 5.9-10.8 9.4-17.7 9.4h-95.8c-11.8 0.5-22.4-10.2-21.6-22v-96.8c0.3-8.8 6.8-16.8 15.2-19.2z" p-id="5591" data-spm-anchor-id="a313x.7781069.0.i10" class="selected" fill="#e6e6e6"></path></svg>