<?xml version="1.0" standalone="no"?><!DOCTYPE svg PUBLIC "-//W3C//DTD SVG 1.1//EN" "http://www.w3.org/Graphics/SVG/1.1/DTD/svg11.dtd"><svg t="1683095649057" class="icon" viewBox="0 0 1024 1024" version="1.1" xmlns="http://www.w3.org/2000/svg" p-id="2776" xmlns:xlink="http://www.w3.org/1999/xlink" width="200" height="200"><path d="M60.1 950h899v-56.2h-899zM959.1 409.2H716.8V128.3l17.5-0.1V72H284.8v56.2l17.6 0.1v280.9H60.1v56.2h17.5l0.1 368.9H60.1v38.6l899-0.1v-38.6h-17.6l-0.1-368.8H959v-56.2zM435.8 693.7v101.8h-49.2V693.7h49.2z m-49.1-42.2V510.9h49.2v140.5h-49.2z m147.5 42.2v101.8H485V693.7h49.2zM485 651.5V510.9h49.2v140.5H485z m147.5 42.2v101.8h-49.2V693.7h49.2z m-49.2-42.2V510.9h49.2v140.5h-49.2z m49.2-309.1h-84.3V423H471v-80.7h-84.3v-80.8H471v-84.3h77.2v84.3h84.3v80.9zM302.4 834.2H112.8V465.3h189.7v368.9z m604.1-0.1c-100.6 0-89 0.1-189.6 0.1V465.3h189.6v368.8z" p-id="2777" fill="#e6e6e6"></path><path d="M829.2 510.9h42.1v140.5h-42.1zM829.2 693.7h42.1v101.8h-42.1zM751.9 510.9H794v140.5h-42.1zM225.1 510.9h42.1v140.5h-42.1zM751.9 693.7H794v101.8h-42.1zM147.9 693.7H190v101.8h-42.1zM225.1 693.7h42.1v101.8h-42.1zM147.9 510.9H190v140.5h-42.1z" p-id="2778" fill="#e6e6e6"></path></svg>