<?xml version="1.0" standalone="no"?><!DOCTYPE svg PUBLIC "-//W3C//DTD SVG 1.1//EN" "http://www.w3.org/Graphics/SVG/1.1/DTD/svg11.dtd"><svg t="1682568956892" class="icon" viewBox="0 0 1024 1024" version="1.1" xmlns="http://www.w3.org/2000/svg" p-id="2506" xmlns:xlink="http://www.w3.org/1999/xlink" width="200" height="200"><path d="M370.193809 128.500653" p-id="2507" fill="#e6e6e6"></path><path d="M932.396187 957.063495l-839.111083 0c-14.145162 0-25.611308-11.466146-25.611308-25.611308L67.673797 92.324732c0-14.145162 11.467169-25.611308 25.611308-25.611308l839.111083 0c14.145162 0 25.611308 11.467169 25.611308 25.611308l0 839.127456C958.007495 945.597349 946.541349 957.063495 932.396187 957.063495zM118.897436 905.839857l787.887444 0L906.78488 117.936039 118.897436 117.936039 118.897436 905.839857z" p-id="2508" fill="#e6e6e6"></path><path d="M233.137293 817.194934c-6.550183 0-13.098319-2.495844-18.099217-7.490601-10.007935-9.995655-10.018168-26.211988-0.021489-36.220946l261.272585-261.58981L215.015563 250.28944c-9.995655-10.007935-9.985422-26.224268 0.022513-36.220946 10.007935-9.995655 26.224268-9.985422 36.220946 0.022513L530.608312 493.796406c9.987468 9.999748 9.987468 26.198685 0 36.198433L251.259022 809.682843C246.257102 814.690904 239.696686 817.194934 233.137293 817.194934z" p-id="2509" fill="#e6e6e6"></path><path d="M792.545022 817.194934c-6.559393 0.001023-13.116739-2.503007-18.119683-7.511067L495.020792 529.995863c-9.989515-9.999748-9.990538-26.201755-0.001023-36.201503l279.405571-279.703353c9.997702-10.006911 26.213012-10.016121 36.220946-0.019443 10.006911 9.997702 10.016121 26.214035 0.019443 36.220946L549.340955 511.894599l261.32375 261.588787c9.996678 10.006911 9.988492 26.223245-0.019443 36.220946C805.646412 814.698067 799.095205 817.194934 792.545022 817.194934z" p-id="2510" fill="#e6e6e6"></path></svg>