<?xml version="1.0" standalone="no"?><!DOCTYPE svg PUBLIC "-//W3C//DTD SVG 1.1//EN" "http://www.w3.org/Graphics/SVG/1.1/DTD/svg11.dtd"><svg t="1681708932874" class="icon" viewBox="0 0 1024 1024" version="1.1" xmlns="http://www.w3.org/2000/svg" p-id="9590" xmlns:xlink="http://www.w3.org/1999/xlink" width="200" height="200"><path d="M287.6 385.7c-1.3-12.4-2-24.9-2.1-37.4 0-160 102-251 227.8-251 70.2-1.7 136.8 30.9 178.9 87.3-49.3 46.8-104.4 86.8-164.1 119.2a666.05 666.05 0 0 1-240.5 81.9z m15.8 74.9c-3.6-11-6.6-22.3-9.1-33.6 87.6-13.3 172.2-41.9 250-84.6 61.8-32.9 118.6-74.5 168.7-123.6 5.5 11.1 10.1 22.7 13.9 34.5-51 54.8-111.3 100.1-178.1 133.7-76.7 39-159.8 64-245.4 73.6z m209.8 281.2c-102.3 0-191.4-38.4-238.5-95.1 37.5-22 77.3-39.6 118.8-52.4-31-25.2-56-57.1-73.2-93.2 85-12 167.6-37.5 244.6-75.5 64.1-31.7 122.4-74 172.5-125.2 2.3 15.8 3.5 31.8 3.5 47.8 0 104.8-43.9 196.3-109.5 247.2C672.5 608.9 712 627 749 649.5c-47.5 55.2-135.2 92.3-235.8 92.3zM99.2 929c-4-31.2-2.2-63 5.1-93.6 14.8-56.3 52.9-111.1 138.4-168.6 53.3 69.6 154.4 116.6 270.5 116.6 114.3 0 214-45.6 267.9-113.4 81.4 62 122.9 115 141.7 166.7 10.8 29.7 4.1 66.9 4.1 92.3H99.2z" fill="#e6e6e6" p-id="9591" data-spm-anchor-id="a313x.7781069.0.i33" class=""></path></svg>