<?xml version="1.0" standalone="no"?><!DOCTYPE svg PUBLIC "-//W3C//DTD SVG 1.1//EN" "http://www.w3.org/Graphics/SVG/1.1/DTD/svg11.dtd"><svg t="1682044631459" class="icon" viewBox="0 0 1024 1024" version="1.1" xmlns="http://www.w3.org/2000/svg" p-id="2768" xmlns:xlink="http://www.w3.org/1999/xlink" width="200" height="200"><path d="M836.266667 68.266667a68.266667 68.266667 0 0 1 68.181333 64.853333L904.533333 136.533333v622.148267a68.317867 68.317867 0 0 1-64.853333 68.164267l-3.396267 0.085333-253.149866 0.119467-159.7952 121.7024c-21.794133 16.5888-52.872533 2.030933-54.7328-24.6272L368.520533 921.6v-94.6688H187.733333a68.266667 68.266667 0 0 1-68.181333-64.853333l-0.085333-3.413334V136.533333a68.266667 68.266667 0 0 1 64.853333-68.181333L187.733333 68.266667h648.533334z m0 690.3808V136.533333H187.733333v622.1312h214.920534a34.133333 34.133333 0 0 1 34.048 31.573334l0.085333 3.1744v59.272533l114.1248-86.903467a34.133333 34.133333 0 0 1 17.476267-6.826666l3.191466-0.1536L836.266667 758.647467z" fill="#e6e6e6" p-id="2769" data-spm-anchor-id="a313x.7781069.0.i0" class="selected"></path><path d="M546.133333 273.066667v136.533333h136.533334v68.266667h-136.533334v136.533333h-68.266666v-136.533333h-136.533334v-68.266667h136.533334v-136.533333h68.266666z" fill="#e6e6e6" p-id="2770" data-spm-anchor-id="a313x.7781069.0.i1" class="selected"></path></svg>