<?xml version="1.0" standalone="no"?><!DOCTYPE svg PUBLIC "-//W3C//DTD SVG 1.1//EN" "http://www.w3.org/Graphics/SVG/1.1/DTD/svg11.dtd"><svg t="1682044679595" class="icon" viewBox="0 0 1024 1024" version="1.1" xmlns="http://www.w3.org/2000/svg" p-id="3146" data-spm-anchor-id="a313x.7781069.0.i3" xmlns:xlink="http://www.w3.org/1999/xlink" width="200" height="200"><path d="M576 224H384a32 32 0 1 0 0 64h192a32 32 0 0 0 0-64zM448 416a32 32 0 1 0 0-64h-64a32 32 0 1 0 0 64z" fill="#e6e6e6" p-id="3147" data-spm-anchor-id="a313x.7781069.0.i6" class="selected"></path><path d="M768 64H320a96.2 96.2 0 0 0-96 96v608a64.1 64.1 0 0 0-64 64v32a96.2 96.2 0 0 0 96 96H640a96.2 96.2 0 0 0 96-96V256H800a64.1 64.1 0 0 0 64-64V160a96.2 96.2 0 0 0-96-96zM320 896h-64a32.1 32.1 0 0 1-32-32v-32h288v32a94.4 94.4 0 0 0 5.5 32z m352-32a32.1 32.1 0 0 1-32 32h-32a32.1 32.1 0 0 1-32-32v-32a64.1 64.1 0 0 0-64-64H288V160a32.1 32.1 0 0 1 32-32h357.5a94.4 94.4 0 0 0-5.5 32zM800 192h-64V160a32 32 0 0 1 64 0z" fill="#e6e6e6" p-id="3148" data-spm-anchor-id="a313x.7781069.0.i4" class="selected"></path><path d="M576 560h-48v-48a32 32 0 1 0-64 0V560h-48a32 32 0 0 0 0 64h48v48a32 32 0 0 0 64 0v-48h48a32 32 0 0 0 0-64z" fill="#e6e6e6" p-id="3149" data-spm-anchor-id="a313x.7781069.0.i5" class="selected"></path></svg>